<svg width="50" height="50" viewBox="0 0 50 50" fill="none" xmlns="http://www.w3.org/2000/svg">
<path fill-rule="evenodd" clip-rule="evenodd" d="M50 0H0V50H50V0ZM25 45.8333C36.5059 45.8333 45.8333 36.5059 45.8333 25C45.8333 13.4941 36.5059 4.16667 25 4.16667C13.4941 4.16667 4.16667 13.4941 4.16667 25C4.16667 36.5059 13.4941 45.8333 25 45.8333Z" fill="#0078D4"/>
<path fill-rule="evenodd" clip-rule="evenodd" d="M29.513 18.0555L25.0002 4.16663L20.4874 18.0555H29.513ZM31.9446 18.5621V31.9444H18.0558V18.5621H5.18652L17.4321 27.459L12.7547 41.8545L25.0002 32.9576L37.2457 41.8545L32.5684 27.459L44.8139 18.5621H31.9446Z" fill="#32BC61"/>
<path d="M37.5 25C37.5 31.9036 31.9036 37.5 25 37.5C18.0964 37.5 12.5 31.9036 12.5 25C12.5 18.0964 18.0964 12.5 25 12.5C31.9036 12.5 37.5 18.0964 37.5 25ZM19.0211 25C19.0211 28.3021 21.6979 30.9789 25 30.9789C28.3021 30.9789 30.9789 28.3021 30.9789 25C30.9789 21.6979 28.3021 19.0211 25 19.0211C21.6979 19.0211 19.0211 21.6979 19.0211 25Z" fill="#32BC61"/>
<path d="M24.9998 13.8889L28.222 19.419L34.6223 19.4445L31.4442 25L34.6223 30.5556L28.222 30.5811L24.9998 36.1111L21.7776 30.5811L15.3773 30.5556L18.5553 25L15.3773 19.4445L21.7776 19.419L24.9998 13.8889Z" fill="#0078D4"/>
</svg>
